<?xml version="1.0" standalone="no"?>
<svg viewBox="0 0 1024 768" version="1.1" xmlns="http://www.w3.org/2000/svg" stroke-linecap="round" stroke-linejoin="round" fill-rule="evenodd" xml:space="preserve" >
<defs >
<clipPath id="clipId0" >
<path d="M0,768 1024,768 1024,0 0,0 z" />
</clipPath>
</defs>
<g stroke-width="1" clip-path="url(#clipId0)" fill="none" stroke="rgb(0,0,0)" />
<g stroke-width="1" clip-path="url(#clipId0)" fill="none" stroke="rgb(127,0,255)" >
<polyline points="182.743,481.233 193.326,481.233 202.874,481.233 212.423,481.233 222.051,481.233 231.599,481.233 241.147,481.233 250.695,481.233 260.244,481.233 269.792,481.233 279.34,481.233 288.889,481.233 298.437,481.233 307.985,481.233 317.533,481.233 327.082,481.233 336.63,481.233 346.178,481.233 355.726,481.233 365.275,481.233 374.823,481.233 384.371,481.233 393.92,481.233 403.468,481.233 413.016,481.233 422.564,481.233 432.113,481.233 441.661,481.233 451.209,481.233 460.758,481.233 470.306,481.233 479.854,481.233 489.402,481.233 498.951,481.233 508.499,481.233 518.047,481.233 527.596,481.233 537.144,481.233 546.692,481.233 556.24,481.233 565.789,481.233 575.337,481.233 584.885,481.233 594.433,481.233 603.982,481.233 613.53,481.233 623.078,481.233 632.627,481.233 642.175,481.233 651.723,481.233 661.271,481.233 670.82,481.233 680.368,481.233 689.916,481.233 699.465,481.233 709.013,481.233 718.561,481.233 728.109,481.233 737.658,481.233 747.206,481.233 756.754,481.233 766.303,481.233 775.851,481.233 785.399,481.233 794.947,481.233 804.496,481.233 814.044,481.233 823.592,481.233 833.14,481.233 842.689,481.233 852.237,481.233 861.785,481.233 871.334,481.233 880.882,481.233 890.43,481.233 899.978,481.233 910.641,481.233 910.641,471.367 910.641,461.818 910.641,452.27 910.641,442.722 910.641,433.174 910.641,423.625 910.641,414.077 910.641,404.529 910.641,394.981 910.641,385.353 910.641,375.804 910.641,366.256 910.641,356.708 910.641,347.16 910.641,337.611 910.641,328.063 910.641,318.515 910.641,308.966 910.641,299.1 899.978,299.1 890.43,299.1 880.882,299.1 871.334,299.1 861.785,299.1 852.237,299.1 842.689,299.1 833.14,299.1 823.592,299.1 814.044,299.1 804.496,299.1 794.947,299.1 785.399,299.1 775.851,299.1 766.303,299.1 756.754,299.1 747.206,299.1 737.658,299.1 728.109,299.1 718.561,299.1 709.013,299.1 699.465,299.1 689.916,299.1 680.368,299.1 670.82,299.1 661.271,299.1 651.723,299.1 642.175,299.1 632.627,299.1 623.078,299.1 613.53,299.1 603.982,299.1 594.433,299.1 584.885,299.1 575.337,299.1 565.789,299.1 556.24,299.1 546.692,299.1 537.144,299.1 527.596,299.1 518.047,299.1 508.499,299.1 498.951,299.1 489.402,299.1 479.854,299.1 470.306,299.1 460.758,299.1 451.209,299.1 441.661,299.1 432.113,299.1 422.564,299.1 413.016,299.1 403.468,299.1 393.92,299.1 384.371,299.1 374.823,299.1 365.275,299.1 355.726,299.1 346.178,299.1 336.63,299.1 327.082,299.1 317.533,299.1 307.985,299.1 298.437,299.1 288.889,299.1 279.34,299.1 269.792,299.1 260.244,299.1 250.695,299.1 241.147,299.1 231.599,299.1 222.051,299.1 212.423,299.1 202.874,299.1 193.326,299.1 182.743,299.1 182.743,308.966 182.743,318.515 182.743,328.063 182.743,337.611 182.743,347.16 182.743,356.708 182.743,366.256 182.743,375.804 182.743,385.353 182.743,394.981 182.743,404.529 182.743,414.077 182.743,423.625 182.743,433.174 182.743,442.722 182.743,452.27 182.743,461.818 182.743,471.367 182.743,481.233 182.743,471.367 182.743,461.818 182.743,452.27 182.743,442.722 182.743,433.174 182.743,423.625 182.743,414.077 182.743,404.529 182.743,394.981 182.743,385.353 182.743,375.804 182.743,366.256 182.743,356.708 182.743,347.16 182.743,337.611 182.743,328.063 182.743,318.515 182.743,308.966 182.743,299.1 193.326,299.1 202.874,299.1 212.423,299.1 222.051,299.1 231.599,299.1 241.147,299.1 250.695,299.1 260.244,299.1 269.792,299.1 279.34,299.1 288.889,299.1 298.437,299.1 307.985,299.1 317.533,299.1 327.082,299.1 336.63,299.1 346.178,299.1 355.726,299.1 365.275,299.1 374.823,299.1 384.371,299.1 393.92,299.1 403.468,299.1 413.016,299.1 422.564,299.1 432.113,299.1 441.661,299.1 451.209,299.1 460.758,299.1 470.306,299.1 479.854,299.1 489.402,299.1 498.951,299.1 508.499,299.1 518.047,299.1 527.596,299.1 537.144,299.1 546.692,299.1 556.24,299.1 565.789,299.1 575.337,299.1 584.885,299.1 594.433,299.1 603.982,299.1 613.53,299.1 623.078,299.1 632.627,299.1 642.175,299.1 651.723,299.1 661.271,299.1 670.82,299.1 680.368,299.1 689.916,299.1 699.465,299.1 709.013,299.1 718.561,299.1 728.109,299.1 737.658,299.1 747.206,299.1 756.754,299.1 766.303,299.1 775.851,299.1 785.399,299.1 794.947,299.1 804.496,299.1 814.044,299.1 823.592,299.1 833.14,299.1 842.689,299.1 852.237,299.1 861.785,299.1 871.334,299.1 880.882,299.1 890.43,299.1 899.978,299.1 910.641,299.1 910.641,308.966 910.641,318.515 910.641,328.063 910.641,337.611 910.641,347.16 910.641,356.708 910.641,366.256 910.641,375.804 910.641,385.353 910.641,394.981 910.641,404.529 910.641,414.077 910.641,423.625 910.641,433.174 910.641,442.722 910.641,452.27 910.641,461.818 910.641,471.367 910.641,481.233 899.978,481.233 890.43,481.233 880.882,481.233 871.334,481.233 861.785,481.233 852.237,481.233 842.689,481.233 833.14,481.233 823.592,481.233 814.044,481.233 804.496,481.233 794.947,481.233 785.399,481.233 775.851,481.233 766.303,481.233 756.754,481.233 747.206,481.233 737.658,481.233 728.109,481.233 718.561,481.233 709.013,481.233 699.465,481.233 689.916,481.233 680.368,481.233 670.82,481.233 661.271,481.233 651.723,481.233 642.175,481.233 632.627,481.233 623.078,481.233 613.53,481.233 603.982,481.233 594.433,481.233 584.885,481.233 575.337,481.233 565.789,481.233 556.24,481.233 546.692,481.233 537.144,481.233 527.596,481.233 518.047,481.233 508.499,481.233 498.951,481.233 489.402,481.233 479.854,481.233 470.306,481.233 460.758,481.233 451.209,481.233 441.661,481.233 432.113,481.233 422.564,481.233 413.016,481.233 403.468,481.233 393.92,481.233 384.371,481.233 374.823,481.233 365.275,481.233 355.726,481.233 346.178,481.233 336.63,481.233 327.082,481.233 317.533,481.233 307.985,481.233 298.437,481.233 288.889,481.233 279.34,481.233 269.792,481.233 260.244,481.233 250.695,481.233 241.147,481.233 231.599,481.233 222.051,481.233 212.423,481.233 202.874,481.233 193.326,481.233 182.743,481.233 " />
<polyline points="409.515,475.345 408.719,473.356 409.515,471.367 411.504,470.571 413.494,471.367 414.289,473.356 413.494,475.345 411.504,476.141 409.515,475.345 411.504,476.141 413.494,475.345 414.289,473.356 413.494,471.367 411.504,470.571 409.515,471.367 408.719,473.356 409.515,475.345 " />
<polyline points="679.891,475.345 679.095,473.356 679.891,471.367 681.88,470.571 683.869,471.367 684.665,473.356 683.869,475.345 681.88,476.141 679.891,475.345 681.88,476.141 683.869,475.345 684.665,473.356 683.869,471.367 681.88,470.571 679.891,471.367 679.095,473.356 679.891,475.345 " />
<polyline points="679.891,308.966 679.095,306.977 679.891,304.988 681.88,304.192 683.869,304.988 684.665,306.977 683.869,308.966 681.88,309.762 679.891,308.966 681.88,309.762 683.869,308.966 684.665,306.977 683.869,304.988 681.88,304.192 679.891,304.988 679.095,306.977 679.891,308.966 " />
<polyline points="409.515,308.966 408.719,306.977 409.515,304.988 411.504,304.192 413.494,304.988 414.289,306.977 413.494,308.966 411.504,309.762 409.515,308.966 411.504,309.762 413.494,308.966 414.289,306.977 413.494,304.988 411.504,304.192 409.515,304.988 408.719,306.977 409.515,308.966 " />
<polyline points="356.045,459.511 356.045,451.395 " />
<polyline points="356.045,441.847 356.045,428.797 " />
<polyline points="356.045,419.249 356.045,406.2 " />
<polyline points="356.045,396.651 356.045,383.682 " />
<polyline points="356.045,374.133 356.045,361.084 " />
<polyline points="356.045,351.536 356.045,338.487 " />
<polyline points="356.045,328.938 356.045,320.822 372.595,320.822 " />
<polyline points="382.143,320.822 395.193,320.822 " />
<polyline points="404.741,320.822 417.79,320.822 " />
<polyline points="427.339,320.822 440.308,320.822 " />
<polyline points="449.857,320.822 462.906,320.822 " />
<polyline points="472.454,320.822 485.504,320.822 " />
<polyline points="495.052,320.822 508.022,320.822 " />
<polyline points="517.57,320.822 530.619,320.822 " />
<polyline points="540.167,320.822 553.217,320.822 " />
<polyline points="562.765,320.822 575.735,320.822 " />
<polyline points="585.283,320.822 598.332,320.822 " />
<polyline points="607.881,320.822 620.93,320.822 " />
<polyline points="630.478,320.822 643.448,320.822 " />
<polyline points="652.996,320.822 666.046,320.822 " />
<polyline points="675.594,320.822 688.643,320.822 " />
<polyline points="698.191,320.822 711.161,320.822 " />
<polyline points="720.709,320.822 737.339,320.822 737.339,328.938 " />
<polyline points="737.339,338.487 737.339,351.536 " />
<polyline points="737.339,361.084 737.339,374.133 " />
<polyline points="737.339,383.682 737.339,396.651 " />
<polyline points="737.339,406.2 737.339,419.249 " />
<polyline points="737.339,428.797 737.339,441.847 " />
<polyline points="737.339,451.395 737.339,459.511 720.709,459.511 " />
<polyline points="711.161,459.511 698.191,459.511 " />
<polyline points="688.643,459.511 675.594,459.511 " />
<polyline points="666.046,459.511 652.996,459.511 " />
<polyline points="643.448,459.511 630.478,459.511 " />
<polyline points="620.93,459.511 607.881,459.511 " />
<polyline points="598.332,459.511 585.283,459.511 " />
<polyline points="575.735,459.511 562.765,459.511 " />
<polyline points="553.217,459.511 540.167,459.511 " />
<polyline points="530.619,459.511 517.57,459.511 " />
<polyline points="508.022,459.511 495.052,459.511 " />
<polyline points="485.504,459.511 472.454,459.511 " />
<polyline points="462.906,459.511 449.857,459.511 " />
<polyline points="440.308,459.511 427.339,459.511 " />
<polyline points="417.79,459.511 404.741,459.511 " />
<polyline points="395.193,459.511 382.143,459.511 " />
<polyline points="372.595,459.511 356.045,459.511 356.045,451.395 " />
<polyline points="356.045,441.847 356.045,428.797 " />
<polyline points="356.045,419.249 356.045,406.2 " />
<polyline points="356.045,396.651 356.045,383.682 " />
<polyline points="356.045,374.133 356.045,361.084 " />
<polyline points="356.045,351.536 356.045,338.487 " />
<polyline points="356.045,328.938 356.045,320.822 372.595,320.822 " />
<polyline points="382.143,320.822 395.193,320.822 " />
<polyline points="404.741,320.822 417.79,320.822 " />
<polyline points="427.339,320.822 440.308,320.822 " />
<polyline points="449.857,320.822 462.906,320.822 " />
<polyline points="472.454,320.822 485.504,320.822 " />
<polyline points="495.052,320.822 508.022,320.822 " />
<polyline points="517.57,320.822 530.619,320.822 " />
<polyline points="540.167,320.822 553.217,320.822 " />
<polyline points="562.765,320.822 575.735,320.822 " />
<polyline points="585.283,320.822 598.332,320.822 " />
<polyline points="607.881,320.822 620.93,320.822 " />
<polyline points="630.478,320.822 643.448,320.822 " />
<polyline points="652.996,320.822 666.046,320.822 " />
<polyline points="675.594,320.822 688.643,320.822 " />
<polyline points="698.191,320.822 711.161,320.822 " />
<polyline points="720.709,320.822 737.339,320.822 737.339,328.938 " />
<polyline points="737.339,338.487 737.339,351.536 " />
<polyline points="737.339,361.084 737.339,374.133 " />
<polyline points="737.339,383.682 737.339,396.651 " />
<polyline points="737.339,406.2 737.339,419.249 " />
<polyline points="737.339,428.797 737.339,441.847 " />
<polyline points="737.339,451.395 737.339,459.511 720.709,459.511 " />
<polyline points="711.161,459.511 698.191,459.511 " />
<polyline points="688.643,459.511 675.594,459.511 " />
<polyline points="666.046,459.511 652.996,459.511 " />
<polyline points="643.448,459.511 630.478,459.511 " />
<polyline points="620.93,459.511 607.881,459.511 " />
<polyline points="598.332,459.511 585.283,459.511 " />
<polyline points="575.735,459.511 562.765,459.511 " />
<polyline points="553.217,459.511 540.167,459.511 " />
<polyline points="530.619,459.511 517.57,459.511 " />
<polyline points="508.022,459.511 495.052,459.511 " />
<polyline points="485.504,459.511 472.454,459.511 " />
<polyline points="462.906,459.511 449.857,459.511 " />
<polyline points="440.308,459.511 427.339,459.511 " />
<polyline points="417.79,459.511 404.741,459.511 " />
<polyline points="395.193,459.511 382.143,459.511 " />
<polyline points="372.595,459.511 356.045,459.511 " />
<polyline points="356.045,317.401 356.045,298.861 372.595,298.861 " />
<polyline points="382.143,298.861 395.193,298.861 " />
<polyline points="404.741,298.861 417.79,298.861 " />
<polyline points="427.339,298.861 440.308,298.861 " />
<polyline points="449.857,298.861 462.906,298.861 " />
<polyline points="472.454,298.861 485.504,298.861 " />
<polyline points="495.052,298.861 508.022,298.861 " />
<polyline points="517.57,298.861 530.619,298.861 " />
<polyline points="540.167,298.861 553.217,298.861 " />
<polyline points="562.765,298.861 575.735,298.861 " />
<polyline points="585.283,298.861 598.332,298.861 " />
<polyline points="607.881,298.861 620.93,298.861 " />
<polyline points="630.478,298.861 643.448,298.861 " />
<polyline points="652.996,298.861 666.046,298.861 " />
<polyline points="675.594,298.861 688.643,298.861 " />
<polyline points="698.191,298.861 711.161,298.861 " />
<polyline points="720.709,298.861 737.339,298.861 737.339,317.401 720.709,317.401 " />
<polyline points="711.161,317.401 698.191,317.401 " />
<polyline points="688.643,317.401 675.594,317.401 " />
<polyline points="666.046,317.401 652.996,317.401 " />
<polyline points="643.448,317.401 630.478,317.401 " />
<polyline points="620.93,317.401 607.881,317.401 " />
<polyline points="598.332,317.401 585.283,317.401 " />
<polyline points="575.735,317.401 562.765,317.401 " />
<polyline points="553.217,317.401 540.167,317.401 " />
<polyline points="530.619,317.401 517.57,317.401 " />
<polyline points="508.022,317.401 495.052,317.401 " />
<polyline points="485.504,317.401 472.454,317.401 " />
<polyline points="462.906,317.401 449.857,317.401 " />
<polyline points="440.308,317.401 427.339,317.401 " />
<polyline points="417.79,317.401 404.741,317.401 " />
<polyline points="395.193,317.401 382.143,317.401 " />
<polyline points="372.595,317.401 356.045,317.401 356.045,298.861 372.595,298.861 " />
<polyline points="382.143,298.861 395.193,298.861 " />
<polyline points="404.741,298.861 417.79,298.861 " />
<polyline points="427.339,298.861 440.308,298.861 " />
<polyline points="449.857,298.861 462.906,298.861 " />
<polyline points="472.454,298.861 485.504,298.861 " />
<polyline points="495.052,298.861 508.022,298.861 " />
<polyline points="517.57,298.861 530.619,298.861 " />
<polyline points="540.167,298.861 553.217,298.861 " />
<polyline points="562.765,298.861 575.735,298.861 " />
<polyline points="585.283,298.861 598.332,298.861 " />
<polyline points="607.881,298.861 620.93,298.861 " />
<polyline points="630.478,298.861 643.448,298.861 " />
<polyline points="652.996,298.861 666.046,298.861 " />
<polyline points="675.594,298.861 688.643,298.861 " />
<polyline points="698.191,298.861 711.161,298.861 " />
<polyline points="720.709,298.861 737.339,298.861 737.339,317.401 720.709,317.401 " />
<polyline points="711.161,317.401 698.191,317.401 " />
<polyline points="688.643,317.401 675.594,317.401 " />
<polyline points="666.046,317.401 652.996,317.401 " />
<polyline points="643.448,317.401 630.478,317.401 " />
<polyline points="620.93,317.401 607.881,317.401 " />
<polyline points="598.332,317.401 585.283,317.401 " />
<polyline points="575.735,317.401 562.765,317.401 " />
<polyline points="553.217,317.401 540.167,317.401 " />
<polyline points="530.619,317.401 517.57,317.401 " />
<polyline points="508.022,317.401 495.052,317.401 " />
<polyline points="485.504,317.401 472.454,317.401 " />
<polyline points="462.906,317.401 449.857,317.401 " />
<polyline points="440.308,317.401 427.339,317.401 " />
<polyline points="417.79,317.401 404.741,317.401 " />
<polyline points="395.193,317.401 382.143,317.401 " />
<polyline points="372.595,317.401 356.045,317.401 " />
<polyline points="356.045,481.472 356.045,462.932 372.595,462.932 " />
<polyline points="382.143,462.932 395.193,462.932 " />
<polyline points="404.741,462.932 417.79,462.932 " />
<polyline points="427.339,462.932 440.308,462.932 " />
<polyline points="449.857,462.932 462.906,462.932 " />
<polyline points="472.454,462.932 485.504,462.932 " />
<polyline points="495.052,462.932 508.022,462.932 " />
<polyline points="517.57,462.932 530.619,462.932 " />
<polyline points="540.167,462.932 553.217,462.932 " />
<polyline points="562.765,462.932 575.735,462.932 " />
<polyline points="585.283,462.932 598.332,462.932 " />
<polyline points="607.881,462.932 620.93,462.932 " />
<polyline points="630.478,462.932 643.448,462.932 " />
<polyline points="652.996,462.932 666.046,462.932 " />
<polyline points="675.594,462.932 688.643,462.932 " />
<polyline points="698.191,462.932 711.161,462.932 " />
<polyline points="720.709,462.932 737.339,462.932 737.339,481.472 720.709,481.472 " />
<polyline points="711.161,481.472 698.191,481.472 " />
<polyline points="688.643,481.472 675.594,481.472 " />
<polyline points="666.046,481.472 652.996,481.472 " />
<polyline points="643.448,481.472 630.478,481.472 " />
<polyline points="620.93,481.472 607.881,481.472 " />
<polyline points="598.332,481.472 585.283,481.472 " />
<polyline points="575.735,481.472 562.765,481.472 " />
<polyline points="553.217,481.472 540.167,481.472 " />
<polyline points="530.619,481.472 517.57,481.472 " />
<polyline points="508.022,481.472 495.052,481.472 " />
<polyline points="485.504,481.472 472.454,481.472 " />
<polyline points="462.906,481.472 449.857,481.472 " />
<polyline points="440.308,481.472 427.339,481.472 " />
<polyline points="417.79,481.472 404.741,481.472 " />
<polyline points="395.193,481.472 382.143,481.472 " />
<polyline points="372.595,481.472 356.045,481.472 356.045,462.932 372.595,462.932 " />
<polyline points="382.143,462.932 395.193,462.932 " />
<polyline points="404.741,462.932 417.79,462.932 " />
<polyline points="427.339,462.932 440.308,462.932 " />
<polyline points="449.857,462.932 462.906,462.932 " />
<polyline points="472.454,462.932 485.504,462.932 " />
<polyline points="495.052,462.932 508.022,462.932 " />
<polyline points="517.57,462.932 530.619,462.932 " />
<polyline points="540.167,462.932 553.217,462.932 " />
<polyline points="562.765,462.932 575.735,462.932 " />
<polyline points="585.283,462.932 598.332,462.932 " />
<polyline points="607.881,462.932 620.93,462.932 " />
<polyline points="630.478,462.932 643.448,462.932 " />
<polyline points="652.996,462.932 666.046,462.932 " />
<polyline points="675.594,462.932 688.643,462.932 " />
<polyline points="698.191,462.932 711.161,462.932 " />
<polyline points="720.709,462.932 737.339,462.932 737.339,481.472 720.709,481.472 " />
<polyline points="711.161,481.472 698.191,481.472 " />
<polyline points="688.643,481.472 675.594,481.472 " />
<polyline points="666.046,481.472 652.996,481.472 " />
<polyline points="643.448,481.472 630.478,481.472 " />
<polyline points="620.93,481.472 607.881,481.472 " />
<polyline points="598.332,481.472 585.283,481.472 " />
<polyline points="575.735,481.472 562.765,481.472 " />
<polyline points="553.217,481.472 540.167,481.472 " />
<polyline points="530.619,481.472 517.57,481.472 " />
<polyline points="508.022,481.472 495.052,481.472 " />
<polyline points="485.504,481.472 472.454,481.472 " />
<polyline points="462.906,481.472 449.857,481.472 " />
<polyline points="440.308,481.472 427.339,481.472 " />
<polyline points="417.79,481.472 404.741,481.472 " />
<polyline points="395.193,481.472 382.143,481.472 " />
<polyline points="372.595,481.472 356.045,481.472 " />
<polyline points="910.879,350.501 910.879,366.256 910.879,375.804 910.879,385.353 910.879,394.981 910.879,404.529 910.879,414.077 910.879,429.832 910.879,414.077 910.879,404.529 910.879,394.981 910.879,385.353 910.879,375.804 910.879,366.256 910.879,350.501 917.563,350.501 " />
<polyline points="910.879,429.832 917.563,429.832 917.563,414.077 917.563,404.529 917.563,394.981 917.563,385.353 917.563,375.804 917.563,366.256 917.563,350.501 917.563,366.256 917.563,375.804 917.563,385.353 917.563,394.981 917.563,404.529 917.563,414.077 917.563,429.832 " />
<polyline points="885.258,364.903 885.258,380.579 885.258,390.127 885.258,399.755 885.258,415.43 885.258,399.755 885.258,390.127 885.258,380.579 885.258,364.903 910.879,364.903 " />
<polyline points="885.258,415.43 910.879,415.43 910.879,399.755 910.879,390.127 910.879,380.579 910.879,364.903 910.879,380.579 910.879,390.127 910.879,399.755 910.879,415.43 " />
<polyline points="910.879,350.501 910.879,366.256 910.879,375.804 910.879,385.353 910.879,394.981 910.879,404.529 910.879,414.077 910.879,429.832 910.879,414.077 910.879,404.529 910.879,394.981 910.879,385.353 910.879,375.804 910.879,366.256 910.879,350.501 917.563,350.501 " />
<polyline points="910.879,429.832 917.563,429.832 917.563,414.077 917.563,404.529 917.563,394.981 917.563,385.353 917.563,375.804 917.563,366.256 917.563,350.501 917.563,366.256 917.563,375.804 917.563,385.353 917.563,394.981 917.563,404.529 917.563,414.077 917.563,429.832 " />
</g>
<g stroke-width="1" clip-path="url(#clipId0)" fill="none" stroke="rgb(255,127,0)" >
<polyline points="885.258,390.127 917.563,390.127 " />
</g>
<g stroke-width="1" clip-path="url(#clipId0)" fill="none" stroke="rgb(127,0,255)" >
<polyline points="557.116,407.473 557.116,399.755 557.116,390.127 557.116,380.579 557.116,372.86 " />
<polyline points="658.805,372.86 658.805,380.579 658.805,390.127 658.805,399.755 658.805,407.473 658.805,399.755 658.805,390.127 658.805,380.579 658.805,372.86 646.153,372.86 636.605,372.86 627.057,372.86 617.508,372.86 607.96,372.86 598.412,372.86 588.864,372.86 579.315,372.86 569.767,372.86 557.116,372.86 557.116,380.579 557.116,390.127 557.116,399.755 557.116,407.473 569.767,407.473 579.315,407.473 588.864,407.473 598.412,407.473 607.96,407.473 617.508,407.473 627.057,407.473 636.605,407.473 646.153,407.473 658.805,407.473 " />
<polyline points="515.501,505.741 529.983,505.741 539.531,505.741 549.079,505.741 558.627,505.741 568.176,505.741 577.724,505.741 587.272,505.741 596.821,505.741 606.369,505.741 615.917,505.741 625.465,505.741 635.014,505.741 644.562,505.741 654.11,505.741 663.659,505.741 673.207,505.741 682.755,505.741 692.303,505.741 701.852,505.741 711.4,505.741 721.028,505.741 730.576,505.741 740.124,505.741 749.673,505.741 759.221,505.741 768.769,505.741 778.317,505.741 792.799,505.741 792.799,500.012 792.799,490.463 792.799,480.915 792.799,471.367 792.799,461.818 792.799,452.27 792.799,442.722 792.799,433.174 792.799,423.625 792.799,414.077 792.799,404.529 792.799,394.981 792.799,385.353 792.799,375.804 792.799,366.256 792.799,356.708 792.799,347.16 792.799,337.611 792.799,328.063 792.799,318.515 792.799,308.966 792.799,299.418 792.799,289.87 792.799,280.322 792.799,274.593 778.317,274.593 768.769,274.593 759.221,274.593 749.673,274.593 740.124,274.593 730.576,274.593 721.028,274.593 711.4,274.593 701.852,274.593 692.303,274.593 682.755,274.593 673.207,274.593 663.659,274.593 654.11,274.593 644.562,274.593 635.014,274.593 625.465,274.593 615.917,274.593 606.369,274.593 596.821,274.593 587.272,274.593 577.724,274.593 568.176,274.593 558.627,274.593 549.079,274.593 539.531,274.593 529.983,274.593 515.501,274.593 515.501,280.322 515.501,289.87 515.501,299.418 515.501,308.966 515.501,318.515 515.501,328.063 515.501,337.611 515.501,347.16 515.501,356.708 515.501,366.256 515.501,375.804 515.501,385.353 515.501,394.981 515.501,404.529 515.501,414.077 515.501,423.625 515.501,433.174 515.501,442.722 515.501,452.27 515.501,461.818 515.501,471.367 515.501,480.915 515.501,490.463 515.501,500.012 515.501,505.741 515.501,500.012 515.501,490.463 515.501,480.915 515.501,471.367 515.501,461.818 515.501,452.27 515.501,442.722 515.501,433.174 515.501,423.625 515.501,414.077 515.501,404.529 515.501,394.981 515.501,385.353 515.501,375.804 515.501,366.256 515.501,356.708 515.501,347.16 515.501,337.611 515.501,328.063 515.501,318.515 515.501,308.966 515.501,299.418 515.501,289.87 515.501,280.322 515.501,274.593 529.983,274.593 539.531,274.593 549.079,274.593 558.627,274.593 568.176,274.593 577.724,274.593 587.272,274.593 596.821,274.593 606.369,274.593 615.917,274.593 625.465,274.593 635.014,274.593 644.562,274.593 654.11,274.593 663.659,274.593 673.207,274.593 682.755,274.593 692.303,274.593 701.852,274.593 711.4,274.593 721.028,274.593 730.576,274.593 740.124,274.593 749.673,274.593 759.221,274.593 768.769,274.593 778.317,274.593 792.799,274.593 792.799,280.322 792.799,289.87 792.799,299.418 792.799,308.966 792.799,318.515 792.799,328.063 792.799,337.611 792.799,347.16 792.799,356.708 792.799,366.256 792.799,375.804 792.799,385.353 792.799,394.981 792.799,404.529 792.799,414.077 792.799,423.625 792.799,433.174 792.799,442.722 792.799,452.27 792.799,461.818 792.799,471.367 792.799,480.915 792.799,490.463 792.799,500.012 792.799,505.741 778.317,505.741 768.769,505.741 759.221,505.741 749.673,505.741 740.124,505.741 730.576,505.741 721.028,505.741 711.4,505.741 701.852,505.741 692.303,505.741 682.755,505.741 673.207,505.741 663.659,505.741 654.11,505.741 644.562,505.741 635.014,505.741 625.465,505.741 615.917,505.741 606.369,505.741 596.821,505.741 587.272,505.741 577.724,505.741 568.176,505.741 558.627,505.741 549.079,505.741 539.531,505.741 529.983,505.741 515.501,505.741 " />
<polyline points="757.868,394.981 757.868,385.353 " />
<polyline points="783.33,385.353 783.33,394.981 783.33,385.353 757.868,385.353 757.868,394.981 783.33,394.981 " />
<polyline points="774.1,416.703 797.175,416.703 797.175,399.755 797.175,390.206 797.175,380.579 797.175,363.63 774.1,363.63 774.1,380.579 774.1,390.206 774.1,399.755 774.1,416.703 774.1,399.755 774.1,390.206 774.1,380.579 774.1,363.63 797.175,363.63 797.175,380.579 797.175,390.206 797.175,399.755 797.175,416.703 774.1,416.703 " />
<polyline points="783.33,369.916 787.945,369.916 787.945,380.579 787.945,390.127 787.945,399.755 787.945,410.417 783.33,410.417 783.33,399.755 783.33,390.127 783.33,380.579 783.33,369.916 " />
<polyline points="787.945,369.916 787.945,380.579 787.945,390.127 787.945,399.755 787.945,410.417 " />
<polyline points="783.33,369.916 783.33,380.579 783.33,390.127 783.33,399.755 783.33,410.417 " />
<polyline points="828.605,355.514 817.704,357.026 808.315,358.379 798.846,359.731 787.945,361.243 787.945,366.256 787.945,375.804 787.945,385.353 787.945,394.981 787.945,404.529 787.945,414.077 787.945,419.09 798.846,420.602 808.315,421.954 817.704,423.307 828.605,424.819 828.605,414.077 828.605,404.529 828.605,394.981 828.605,385.353 828.605,375.804 828.605,366.256 828.605,355.514 " />
<polyline points="787.945,419.09 787.945,414.077 787.945,404.529 787.945,394.981 787.945,385.353 787.945,375.804 787.945,366.256 787.945,361.243 " />
<polyline points="828.605,424.819 828.605,414.077 828.605,404.529 828.605,394.981 828.605,385.353 828.605,375.804 828.605,366.256 828.605,355.514 " />
<polyline points="828.605,429.434 828.605,414.077 828.605,404.529 828.605,394.981 828.605,385.353 828.605,375.804 828.605,366.256 828.605,350.899 " />
<polyline points="847.145,350.899 847.145,366.256 847.145,375.804 847.145,385.353 847.145,394.981 847.145,404.529 847.145,414.077 847.145,429.434 847.145,414.077 847.145,404.529 847.145,394.981 847.145,385.353 847.145,375.804 847.145,366.256 847.145,350.899 828.605,350.899 828.605,366.256 828.605,375.804 828.605,385.353 828.605,394.981 828.605,404.529 828.605,414.077 828.605,429.434 847.145,429.434 " />
<polyline points="847.145,424.819 847.145,414.077 847.145,404.529 847.145,394.981 847.145,385.353 847.145,375.804 847.145,366.256 847.145,355.514 " />
<polyline points="854.067,355.514 854.067,366.256 854.067,375.804 854.067,385.353 854.067,394.981 854.067,404.529 854.067,414.077 854.067,424.819 854.067,414.077 854.067,404.529 854.067,394.981 854.067,385.353 854.067,375.804 854.067,366.256 854.067,355.514 847.145,355.514 847.145,366.256 847.145,375.804 847.145,385.353 847.145,394.981 847.145,404.529 847.145,414.077 847.145,424.819 854.067,424.819 " />
<polyline points="854.067,436.356 854.067,428.4 854.067,418.851 854.067,409.303 854.067,399.755 854.067,390.127 854.067,380.579 854.067,371.03 854.067,361.482 854.067,351.934 854.067,343.977 " />
<polyline points="865.605,343.977 865.605,351.934 865.605,361.482 865.605,371.03 865.605,380.579 865.605,390.127 865.605,399.755 865.605,409.303 865.605,418.851 865.605,428.4 865.605,436.356 865.605,428.4 865.605,418.851 865.605,409.303 865.605,399.755 865.605,390.127 865.605,380.579 865.605,371.03 865.605,361.482 865.605,351.934 865.605,343.977 854.067,343.977 854.067,351.934 854.067,361.482 854.067,371.03 854.067,380.579 854.067,390.127 854.067,399.755 854.067,409.303 854.067,418.851 854.067,428.4 854.067,436.356 865.605,436.356 " />
<polyline points="865.605,453.702 865.605,442.722 865.605,433.174 865.605,423.625 865.605,414.077 865.605,404.529 865.605,394.981 865.605,385.353 865.605,375.804 865.605,366.256 865.605,356.708 865.605,347.16 865.605,337.611 865.605,326.631 " />
<polyline points="904.912,326.631 904.912,337.611 904.912,347.16 904.912,356.708 904.912,366.256 904.912,375.804 904.912,385.353 904.912,394.981 904.912,404.529 904.912,414.077 904.912,423.625 904.912,433.174 904.912,442.722 904.912,453.702 904.912,442.722 904.912,433.174 904.912,423.625 904.912,414.077 904.912,404.529 904.912,394.981 904.912,385.353 904.912,375.804 904.912,366.256 904.912,356.708 904.912,347.16 904.912,337.611 904.912,326.631 894.806,326.631 885.258,326.631 875.71,326.631 865.605,326.631 865.605,337.611 865.605,347.16 865.605,356.708 865.605,366.256 865.605,375.804 865.605,385.353 865.605,394.981 865.605,404.529 865.605,414.077 865.605,423.625 865.605,433.174 865.605,442.722 865.605,453.702 875.71,453.702 885.258,453.702 894.806,453.702 904.912,453.702 " />
<polyline points="774.1,390.127 774.1,392.514 785.638,392.514 785.638,390.127 774.1,390.127 " />
<polyline points="774.1,392.514 785.638,392.514 785.638,390.127 774.1,390.127 " />
<polyline points="785.638,416.703 785.638,399.755 785.638,390.206 785.638,380.579 785.638,363.63 " />
<polyline points="787.945,416.703 787.945,399.755 787.945,390.206 787.945,380.579 787.945,363.63 " />
<polyline points="785.638,401.744 785.638,378.589 787.945,378.589 787.945,401.744 " />
<polyline points="785.638,378.589 785.638,363.63 787.945,363.63 787.945,378.589 " />
<polyline points="787.945,401.744 785.638,401.744 785.638,416.703 787.945,416.703 787.945,401.744 " />
<polyline points="479.934,385.353 494.734,385.353 504.282,385.353 513.83,385.353 523.378,385.353 532.927,385.353 542.475,385.353 552.023,385.353 561.571,385.353 571.12,385.353 580.668,385.353 590.216,385.353 599.765,385.353 609.313,385.353 618.941,385.353 628.489,385.353 638.037,385.353 647.586,385.353 657.134,385.353 666.682,385.353 676.23,385.353 685.779,385.353 695.327,385.353 704.875,385.353 714.424,385.353 723.972,385.353 733.52,385.353 743.068,385.353 757.868,385.353 757.868,394.981 743.068,394.981 733.52,394.981 723.972,394.981 714.424,394.981 704.875,394.981 695.327,394.981 685.779,394.981 676.23,394.981 666.682,394.981 657.134,394.981 647.586,394.981 638.037,394.981 628.489,394.981 618.941,394.981 609.313,394.981 599.765,394.981 590.216,394.981 580.668,394.981 571.12,394.981 561.571,394.981 552.023,394.981 542.475,394.981 532.927,394.981 523.378,394.981 513.83,394.981 504.282,394.981 494.734,394.981 479.934,394.981 479.934,385.353 " />
<polyline points="757.868,385.353 757.868,394.981 " />
<polyline points="479.934,385.353 479.934,394.981 " />
<polyline points="631.035,424.819 644.562,424.819 654.11,424.819 663.659,424.819 677.265,424.819 677.265,414.077 677.265,404.529 677.265,394.981 677.265,385.353 677.265,375.804 677.265,366.256 677.265,355.514 663.659,355.514 654.11,355.514 644.562,355.514 631.035,355.514 631.035,366.256 631.035,375.804 631.035,385.353 631.035,394.981 631.035,404.529 631.035,414.077 631.035,424.819 631.035,414.077 631.035,404.529 631.035,394.981 631.035,385.353 631.035,375.804 631.035,366.256 631.035,355.514 644.562,355.514 654.11,355.514 663.659,355.514 677.265,355.514 677.265,366.256 677.265,375.804 677.265,385.353 677.265,394.981 677.265,404.529 677.265,414.077 677.265,424.819 663.659,424.819 654.11,424.819 644.562,424.819 631.035,424.819 " />
<polyline points="131.899,309.285 138.742,309.285 148.29,309.285 157.838,309.285 167.387,309.285 176.935,309.285 186.483,309.285 196.031,309.285 205.58,309.285 215.128,309.285 224.756,309.285 234.304,309.285 243.852,309.285 253.401,309.285 262.949,309.285 272.497,309.285 282.046,309.285 291.594,309.285 301.142,309.285 310.69,309.285 320.239,309.285 329.787,309.285 339.335,309.285 348.884,309.285 358.432,309.285 367.98,309.285 377.528,309.285 387.077,309.285 396.625,309.285 406.173,309.285 415.722,309.285 425.27,309.285 434.818,309.285 444.366,309.285 453.915,309.285 463.463,309.285 473.011,309.285 479.934,309.285 479.934,323.289 479.934,332.837 479.934,342.385 479.934,351.934 479.934,361.482 479.934,371.03 479.934,380.579 479.934,390.206 479.934,399.755 479.934,409.303 479.934,418.851 479.934,428.4 479.934,437.948 479.934,447.496 479.934,457.044 479.934,471.048 473.011,471.048 463.463,471.048 453.915,471.048 444.366,471.048 434.818,471.048 425.27,471.048 415.722,471.048 406.173,471.048 396.625,471.048 387.077,471.048 377.528,471.048 367.98,471.048 358.432,471.048 348.884,471.048 339.335,471.048 329.787,471.048 320.239,471.048 310.69,471.048 301.142,471.048 291.594,471.048 282.046,471.048 272.497,471.048 262.949,471.048 253.401,471.048 243.852,471.048 234.304,471.048 224.756,471.048 215.128,471.048 205.58,471.048 196.031,471.048 186.483,471.048 176.935,471.048 167.387,471.048 157.838,471.048 148.29,471.048 138.742,471.048 131.899,471.048 131.899,457.044 131.899,447.496 131.899,437.948 131.899,428.4 131.899,418.851 131.899,409.303 131.899,399.755 131.899,390.206 131.899,380.579 131.899,371.03 131.899,361.482 131.899,351.934 131.899,342.385 131.899,332.837 131.899,323.289 131.899,309.285 " />
<polyline points="479.934,309.285 479.934,323.289 479.934,332.837 479.934,342.385 479.934,351.934 479.934,361.482 479.934,371.03 479.934,380.579 479.934,390.206 479.934,399.755 479.934,409.303 479.934,418.851 479.934,428.4 479.934,437.948 479.934,447.496 479.934,457.044 479.934,471.048 " />
<polyline points="131.899,309.285 131.899,323.289 131.899,332.837 131.899,342.385 131.899,351.934 131.899,361.482 131.899,371.03 131.899,380.579 131.899,390.206 131.899,399.755 131.899,409.303 131.899,418.851 131.899,428.4 131.899,437.948 131.899,447.496 131.899,457.044 131.899,471.048 " />
<polyline points="676.947,367.37 654.11,357.901 631.354,367.37 621.885,390.127 631.354,412.963 654.11,422.432 676.947,412.963 686.415,390.127 676.947,367.37 686.415,390.127 676.947,412.963 654.11,422.432 631.354,412.963 621.885,390.127 631.354,367.37 654.11,357.901 676.947,367.37 " />
<polyline points="667.876,376.441 654.11,370.792 640.424,376.441 634.695,390.127 640.424,403.892 654.11,409.542 667.876,403.892 673.525,390.127 667.876,376.441 673.525,390.127 667.876,403.892 654.11,409.542 640.424,403.892 634.695,390.127 640.424,376.441 654.11,370.792 667.876,376.441 " />
<polyline points="676.947,367.37 654.11,357.901 631.354,367.37 621.885,390.127 631.354,412.963 654.11,422.432 676.947,412.963 686.415,390.127 676.947,367.37 686.415,390.127 676.947,412.963 654.11,422.432 631.354,412.963 621.885,390.127 631.354,367.37 654.11,357.901 676.947,367.37 " />
</g>
<g stroke-width="1" clip-path="url(#clipId0)" fill="none" stroke="rgb(0,0,0)" >
<polyline points="126.886,692.489 922.576,692.489 922.576,87.7646 126.886,87.7646 126.886,692.489 " />
</g>
</svg>
