<?xml version="1.0" standalone="no"?>
<svg viewBox="0 0 1024 768" version="1.1" xmlns="http://www.w3.org/2000/svg" stroke-linecap="round" stroke-linejoin="round" fill-rule="evenodd" xml:space="preserve" >
<defs >
<clipPath id="clipId0" >
<path d="M0,768 1024,768 1024,0 0,0 z" />
</clipPath>
</defs>
<g stroke-width="0.1" clip-path="url(#clipId0)" fill="none" stroke="rgb(0,0,0)" />
<g stroke-width="1" clip-path="url(#clipId0)" fill="none" stroke="rgb(0,0,0)" >
<polyline points="509.374,227.408 509.374,202.742 499.508,202.742 509.374,202.742 509.374,227.408 499.508,227.408 499.508,202.742 " />
<polyline points="351.43,227.408 351.43,202.742 361.296,202.742 351.43,202.742 " />
<polyline points="361.296,202.742 361.296,227.408 351.43,227.408 351.43,202.742 " />
</g>
<g stroke-width="1" clip-path="url(#clipId0)" fill="none" stroke="rgb(0,0,0)" >
<polyline points="696.918,507.73 696.998,507.73 696.998,499.136 696.918,499.136 696.918,507.73 " />
<polyline points="696.998,499.136 696.998,507.73 " />
<polyline points="696.918,499.136 696.918,507.73 " />
<polyline points="696.918,497.863 695.725,497.863 695.725,509.082 696.918,509.082 696.918,497.863 " />
<polyline points="695.725,509.082 695.725,497.863 " />
<polyline points="696.918,509.082 696.918,497.863 " />
<polyline points="693.179,500.648 693.179,506.298 693.179,500.648 695.725,500.171 " />
<polyline points="693.179,506.298 695.725,506.775 695.725,500.171 695.725,506.775 " />
</g>
<g stroke-width="1" clip-path="url(#clipId0)" fill="none" stroke="rgb(0,0,0)" >
<polyline points="560.378,503.433 693.179,503.433 696.918,503.433 " />
</g>
<g stroke-width="1" clip-path="url(#clipId0)" fill="none" stroke="rgb(0,0,0)" >
<polyline points="693.179,506.298 679.254,506.298 669.706,506.298 660.157,506.298 650.609,506.298 641.061,506.298 631.513,506.298 621.964,506.298 612.416,506.298 602.868,506.298 593.32,506.298 583.771,506.298 574.223,506.298 560.378,506.298 560.378,500.648 574.223,500.648 583.771,500.648 593.32,500.648 602.868,500.648 612.416,500.648 621.964,500.648 631.513,500.648 641.061,500.648 650.609,500.648 660.157,500.648 669.706,500.648 679.254,500.648 693.179,500.648 693.179,506.298 " />
<polyline points="560.378,506.298 560.378,500.648 " />
<polyline points="693.179,506.298 693.179,500.648 " />
<polyline points="552.819,506.298 554.808,505.502 555.683,503.433 554.808,501.444 552.819,500.648 " />
<polyline points="560.378,506.298 560.378,500.648 " />
<polyline points="555.047,500.648 552.819,500.648 550.83,501.444 550.034,503.433 550.83,505.502 552.819,506.298 560.378,506.298 560.378,500.648 555.047,500.648 " />
</g>
<g stroke-width="1" clip-path="url(#clipId0)" fill="none" stroke="rgb(0,0,0)" >
<polyline points="560.378,503.433 552.819,503.433 " />
</g>
<g stroke-width="1" clip-path="url(#clipId0)" fill="none" stroke="rgb(0,0,0)" >
<polyline points="554.808,501.444 552.819,500.648 550.83,501.444 550.034,503.433 550.83,505.502 552.819,506.298 554.808,505.502 555.683,503.433 554.808,501.444 555.683,503.433 554.808,505.502 552.819,506.298 550.83,505.502 550.034,503.433 550.83,501.444 552.819,500.648 554.808,501.444 " />
<polyline points="555.683,503.433 555.683,510.992 550.034,510.992 555.683,510.992 " />
<polyline points="550.034,510.992 550.034,503.433 550.83,505.502 " />
<polyline points="550.034,503.433 550.83,501.444 552.819,500.648 554.808,501.444 555.683,503.433 554.808,505.502 552.819,506.298 550.83,505.502 " />
</g>
<g stroke-width="1" clip-path="url(#clipId0)" fill="none" stroke="rgb(0,0,0)" >
<polyline points="552.819,503.433 552.819,510.992 552.819,532.953 " />
</g>
<g stroke-width="1" clip-path="url(#clipId0)" fill="none" stroke="rgb(0,0,0)" >
<polyline points="550.034,532.953 555.683,532.953 550.034,532.953 550.034,510.992 " />
<polyline points="555.683,532.953 555.683,510.992 550.034,510.992 555.683,510.992 " />
<polyline points="548.681,536.295 545.339,537.648 545.339,543.297 552.66,540.274 555.683,532.953 550.034,532.953 548.681,536.295 " />
<polyline points="545.339,543.297 545.339,537.648 " />
<polyline points="555.683,532.953 550.034,532.953 " />
</g>
<g stroke-width="1" clip-path="url(#clipId0)" fill="none" stroke="rgb(0,0,0)" >
<polyline points="552.819,532.953 550.671,538.284 545.339,540.512 " />
</g>
<g stroke-width="1" clip-path="url(#clipId0)" fill="none" stroke="rgb(0,0,0)" >
<polyline points="541.6,546.162 542.714,546.162 542.714,534.863 541.6,534.863 541.6,546.162 " />
<polyline points="542.714,534.863 542.714,546.162 " />
<polyline points="541.6,534.863 541.6,546.162 " />
<polyline points="545.339,543.297 545.339,537.648 545.339,543.297 542.714,543.854 " />
<polyline points="545.339,537.648 542.714,537.17 542.714,543.854 542.714,537.17 " />
</g>
<g stroke-width="1" clip-path="url(#clipId0)" fill="none" stroke="rgb(0,0,0)" >
<polyline points="545.339,540.512 541.6,540.512 " />
</g>
<g stroke-width="1" clip-path="url(#clipId0)" fill="none" stroke="rgb(0,0,0)" >
<polyline points="541.52,544.809 541.6,544.809 541.6,536.215 541.52,536.215 541.52,544.809 " />
<polyline points="541.6,536.215 541.6,544.809 " />
<polyline points="541.52,536.215 541.52,544.809 " />
<polyline points="688.961,503.513 688.961,503.433 680.368,503.433 680.368,503.513 688.961,503.513 " />
<polyline points="680.368,503.433 688.961,503.433 " />
<polyline points="680.368,503.513 688.961,503.513 " />
<polyline points="679.015,503.513 679.015,504.706 690.314,504.706 690.314,503.513 679.015,503.513 " />
<polyline points="690.314,504.706 679.015,504.706 " />
<polyline points="690.314,503.513 679.015,503.513 " />
<polyline points="681.8,507.332 687.45,507.332 681.8,507.332 681.323,504.706 " />
<polyline points="687.45,507.332 688.007,504.706 681.323,504.706 688.007,504.706 " />
</g>
<g stroke-width="1" clip-path="url(#clipId0)" fill="none" stroke="rgb(0,0,0)" >
<polyline points="684.665,513.22 684.665,507.332 684.665,503.513 " />
</g>
<g stroke-width="1" clip-path="url(#clipId0)" fill="none" stroke="rgb(0,0,0)" >
<polyline points="681.8,513.22 687.45,513.22 681.8,513.22 681.8,507.332 " />
<polyline points="687.45,513.22 687.45,507.332 681.8,507.332 687.45,507.332 " />
<polyline points="680.448,516.562 677.106,517.915 677.106,523.564 684.426,520.54 687.45,513.22 681.8,513.22 680.448,516.562 " />
<polyline points="677.106,523.564 677.106,517.915 " />
<polyline points="687.45,513.22 681.8,513.22 " />
</g>
<g stroke-width="1" clip-path="url(#clipId0)" fill="none" stroke="rgb(0,0,0)" >
<polyline points="684.665,513.22 682.437,518.551 677.106,520.779 570.245,520.779 " />
</g>
<g stroke-width="1" clip-path="url(#clipId0)" fill="none" stroke="rgb(0,0,0)" >
<polyline points="677.106,523.564 661.908,523.564 652.36,523.564 642.811,523.564 633.263,523.564 623.715,523.564 614.167,523.564 604.618,523.564 595.07,523.564 585.522,523.564 570.245,523.564 570.245,517.915 585.522,517.915 595.07,517.915 604.618,517.915 614.167,517.915 623.715,517.915 633.263,517.915 642.811,517.915 652.36,517.915 661.908,517.915 677.106,517.915 677.106,523.564 " />
<polyline points="570.245,523.564 570.245,517.915 " />
<polyline points="677.106,523.564 677.106,517.915 " />
<polyline points="562.765,523.564 564.754,522.768 565.55,520.779 564.754,518.79 562.765,517.915 " />
<polyline points="570.245,523.564 570.245,517.915 " />
<polyline points="564.913,517.915 562.765,517.915 560.696,518.79 559.901,520.779 560.696,522.768 562.765,523.564 570.245,523.564 570.245,517.915 564.913,517.915 " />
</g>
<g stroke-width="1" clip-path="url(#clipId0)" fill="none" stroke="rgb(0,0,0)" >
<polyline points="570.245,520.779 562.765,520.779 " />
</g>
<g stroke-width="1" clip-path="url(#clipId0)" fill="none" stroke="rgb(0,0,0)" >
<polyline points="564.754,518.79 562.765,517.915 560.696,518.79 559.901,520.779 560.696,522.768 562.765,523.564 564.754,522.768 565.55,520.779 564.754,518.79 565.55,520.779 564.754,522.768 562.765,523.564 560.696,522.768 559.901,520.779 560.696,518.79 562.765,517.915 564.754,518.79 " />
<polyline points="565.55,520.779 565.55,528.259 559.901,528.259 565.55,528.259 " />
<polyline points="559.901,528.259 559.901,520.779 560.696,522.768 " />
<polyline points="559.901,520.779 560.696,518.79 562.765,517.915 564.754,518.79 565.55,520.779 564.754,522.768 562.765,523.564 560.696,522.768 " />
</g>
<g stroke-width="1" clip-path="url(#clipId0)" fill="none" stroke="rgb(0,0,0)" >
<polyline points="562.765,520.779 562.765,528.259 562.765,557.62 " />
</g>
<g stroke-width="1" clip-path="url(#clipId0)" fill="none" stroke="rgb(0,0,0)" >
<polyline points="559.901,557.62 565.55,557.62 559.901,557.62 559.901,552.527 559.901,542.979 559.901,533.431 559.901,528.259 " />
<polyline points="565.55,557.62 565.55,552.527 565.55,542.979 565.55,533.431 565.55,528.259 559.901,528.259 565.55,528.259 " />
<polyline points="558.548,560.961 555.206,562.314 555.206,567.964 562.526,564.94 565.55,557.62 559.901,557.62 558.548,560.961 " />
<polyline points="555.206,567.964 555.206,562.314 " />
<polyline points="565.55,557.62 559.901,557.62 " />
</g>
<g stroke-width="1" clip-path="url(#clipId0)" fill="none" stroke="rgb(0,0,0)" >
<polyline points="562.765,557.62 560.537,562.951 555.206,565.179 545.339,565.179 " />
</g>
<g stroke-width="1" clip-path="url(#clipId0)" fill="none" stroke="rgb(0,0,0)" >
<polyline points="545.339,562.314 545.339,567.964 545.339,562.314 555.206,562.314 " />
<polyline points="545.339,567.964 555.206,567.964 555.206,562.314 555.206,567.964 " />
<polyline points="541.6,570.828 542.714,570.828 542.714,559.529 541.6,559.529 541.6,570.828 " />
<polyline points="542.714,559.529 542.714,570.828 " />
<polyline points="541.6,559.529 541.6,570.828 " />
<polyline points="545.339,567.964 545.339,562.314 545.339,567.964 542.714,568.521 " />
<polyline points="545.339,562.314 542.714,561.837 542.714,568.521 542.714,561.837 " />
</g>
<g stroke-width="1" clip-path="url(#clipId0)" fill="none" stroke="rgb(0,0,0)" >
<polyline points="545.339,565.179 541.6,565.179 " />
</g>
<g stroke-width="1" clip-path="url(#clipId0)" fill="none" stroke="rgb(0,0,0)" >
<polyline points="541.52,569.475 541.6,569.475 541.6,560.882 541.52,560.882 541.52,569.475 " />
<polyline points="541.6,560.882 541.6,569.475 " />
<polyline points="541.52,560.882 541.52,569.475 " />
</g>
<g stroke-width="1" clip-path="url(#clipId0)" fill="none" stroke="rgb(0,0,0)" >
<polyline points="726.995,244.356 712.434,244.356 702.886,244.356 693.338,244.356 683.789,244.356 674.241,244.356 664.693,244.356 655.145,244.356 645.596,244.356 636.048,244.356 626.5,244.356 616.952,244.356 607.403,244.356 597.855,244.356 588.307,244.356 578.758,244.356 564.277,244.356 564.277,257.008 564.277,266.556 564.277,276.104 564.277,285.653 564.277,295.201 564.277,304.749 564.277,314.298 564.277,323.846 564.277,333.394 564.277,342.942 564.277,352.491 564.277,362.039 564.277,371.587 564.277,381.136 564.277,390.684 564.277,400.232 564.277,409.78 564.277,419.329 564.277,428.877 564.277,438.425 564.277,447.973 564.277,457.522 564.277,467.07 564.277,476.618 564.277,489.19 578.758,489.19 588.307,489.19 597.855,489.19 607.403,489.19 616.952,489.19 626.5,489.19 636.048,489.19 645.596,489.19 655.145,489.19 664.693,489.19 674.241,489.19 683.789,489.19 693.338,489.19 702.886,489.19 712.434,489.19 726.995,489.19 726.995,476.618 726.995,467.07 726.995,457.522 726.995,447.973 726.995,438.425 726.995,428.877 726.995,419.329 726.995,409.78 726.995,400.232 726.995,390.684 726.995,381.136 726.995,371.587 726.995,362.039 726.995,352.491 726.995,342.942 726.995,333.394 726.995,323.846 726.995,314.298 726.995,304.749 726.995,295.201 726.995,285.653 726.995,276.104 726.995,266.556 726.995,257.008 726.995,244.356 726.995,257.008 726.995,266.556 726.995,276.104 726.995,285.653 726.995,295.201 726.995,304.749 726.995,314.298 726.995,323.846 726.995,333.394 726.995,342.942 726.995,352.491 726.995,362.039 726.995,371.587 726.995,381.136 726.995,390.684 726.995,400.232 726.995,409.78 726.995,419.329 726.995,428.877 726.995,438.425 726.995,447.973 726.995,457.522 726.995,467.07 726.995,476.618 726.995,489.19 712.434,489.19 702.886,489.19 693.338,489.19 683.789,489.19 674.241,489.19 664.693,489.19 655.145,489.19 645.596,489.19 636.048,489.19 626.5,489.19 616.952,489.19 607.403,489.19 597.855,489.19 588.307,489.19 578.758,489.19 564.277,489.19 564.277,476.618 564.277,467.07 564.277,457.522 564.277,447.973 564.277,438.425 564.277,428.877 564.277,419.329 564.277,409.78 564.277,400.232 564.277,390.684 564.277,381.136 564.277,371.587 564.277,362.039 564.277,352.491 564.277,342.942 564.277,333.394 564.277,323.846 564.277,314.298 564.277,304.749 564.277,295.201 564.277,285.653 564.277,276.104 564.277,266.556 564.277,257.008 564.277,244.356 578.758,244.356 588.307,244.356 597.855,244.356 607.403,244.356 616.952,244.356 626.5,244.356 636.048,244.356 645.596,244.356 655.145,244.356 664.693,244.356 674.241,244.356 683.789,244.356 693.338,244.356 702.886,244.356 712.434,244.356 726.995,244.356 " />
<polyline points="533.643,246.505 524.492,246.505 514.944,246.505 505.396,246.505 495.847,246.505 486.299,246.505 476.751,246.505 467.203,246.505 457.654,246.505 448.106,246.505 438.558,246.505 429.01,246.505 419.461,246.505 409.913,246.505 400.365,246.505 390.816,246.505 381.268,246.505 371.72,246.505 362.172,246.505 352.623,246.505 343.075,246.505 333.447,246.505 324.297,246.505 324.297,255.735 324.297,265.283 324.297,274.831 324.297,284.38 324.297,293.928 324.297,303.476 324.297,313.024 324.297,322.573 324.297,332.121 324.297,341.669 324.297,351.218 324.297,360.766 324.297,370.314 324.297,379.862 324.297,389.411 324.297,398.959 324.297,408.507 324.297,418.056 324.297,427.604 324.297,437.152 324.297,446.7 324.297,456.249 324.297,465.797 324.297,475.345 324.297,484.893 324.297,494.442 324.297,503.99 324.297,513.538 324.297,523.087 324.297,532.635 324.297,542.183 324.297,551.731 324.297,561.28 324.297,570.828 324.297,580.376 324.297,589.925 324.297,599.473 324.297,609.021 324.297,618.569 324.297,628.118 324.297,637.666 324.297,647.214 324.297,656.524 333.447,656.524 343.075,656.524 352.623,656.524 362.172,656.524 371.72,656.524 381.268,656.524 390.816,656.524 400.365,656.524 409.913,656.524 419.461,656.524 429.01,656.524 438.558,656.524 448.106,656.524 457.654,656.524 467.203,656.524 476.751,656.524 486.299,656.524 495.847,656.524 505.396,656.524 514.944,656.524 524.492,656.524 533.643,656.524 533.643,647.214 533.643,637.666 533.643,628.118 533.643,618.569 533.643,609.021 533.643,599.473 533.643,589.925 533.643,580.376 533.643,570.828 533.643,561.28 533.643,551.731 533.643,542.183 533.643,532.635 533.643,523.087 533.643,513.538 533.643,503.99 533.643,494.442 533.643,484.893 533.643,475.345 533.643,465.797 533.643,456.249 533.643,446.7 533.643,437.152 533.643,427.604 533.643,418.056 533.643,408.507 533.643,398.959 533.643,389.411 533.643,379.862 533.643,370.314 533.643,360.766 533.643,351.218 533.643,341.669 533.643,332.121 533.643,322.573 533.643,313.024 533.643,303.476 533.643,293.928 533.643,284.38 533.643,274.831 533.643,265.283 533.643,255.735 533.643,246.505 533.643,255.735 533.643,265.283 533.643,274.831 533.643,284.38 533.643,293.928 533.643,303.476 533.643,313.024 533.643,322.573 533.643,332.121 533.643,341.669 533.643,351.218 533.643,360.766 533.643,370.314 533.643,379.862 533.643,389.411 533.643,398.959 533.643,408.507 533.643,418.056 533.643,427.604 533.643,437.152 533.643,446.7 533.643,456.249 533.643,465.797 533.643,475.345 533.643,484.893 533.643,494.442 533.643,503.99 533.643,513.538 533.643,523.087 533.643,532.635 533.643,542.183 533.643,551.731 533.643,561.28 533.643,570.828 533.643,580.376 533.643,589.925 533.643,599.473 533.643,609.021 533.643,618.569 533.643,628.118 533.643,637.666 533.643,647.214 533.643,656.524 524.492,656.524 514.944,656.524 505.396,656.524 495.847,656.524 486.299,656.524 476.751,656.524 467.203,656.524 457.654,656.524 448.106,656.524 438.558,656.524 429.01,656.524 419.461,656.524 409.913,656.524 400.365,656.524 390.816,656.524 381.268,656.524 371.72,656.524 362.172,656.524 352.623,656.524 343.075,656.524 333.447,656.524 324.297,656.524 324.297,647.214 324.297,637.666 324.297,628.118 324.297,618.569 324.297,609.021 324.297,599.473 324.297,589.925 324.297,580.376 324.297,570.828 324.297,561.28 324.297,551.731 324.297,542.183 324.297,532.635 324.297,523.087 324.297,513.538 324.297,503.99 324.297,494.442 324.297,484.893 324.297,475.345 324.297,465.797 324.297,456.249 324.297,446.7 324.297,437.152 324.297,427.604 324.297,418.056 324.297,408.507 324.297,398.959 324.297,389.411 324.297,379.862 324.297,370.314 324.297,360.766 324.297,351.218 324.297,341.669 324.297,332.121 324.297,322.573 324.297,313.024 324.297,303.476 324.297,293.928 324.297,284.38 324.297,274.831 324.297,265.283 324.297,255.735 324.297,246.505 333.447,246.505 343.075,246.505 352.623,246.505 362.172,246.505 371.72,246.505 381.268,246.505 390.816,246.505 400.365,246.505 409.913,246.505 419.461,246.505 429.01,246.505 438.558,246.505 448.106,246.505 457.654,246.505 467.203,246.505 476.751,246.505 486.299,246.505 495.847,246.505 505.396,246.505 514.944,246.505 524.492,246.505 533.643,246.505 " />
<polyline points="540.327,543.854 537.701,543.297 531.654,543.297 531.654,537.648 537.701,537.648 537.701,543.297 " />
<polyline points="537.701,537.648 540.327,537.17 540.327,543.854 " />
<polyline points="541.52,546.162 540.327,546.162 540.327,534.863 541.52,534.863 541.52,546.162 " />
<polyline points="531.654,543.218 541.52,543.218 541.52,537.727 531.654,537.727 531.654,543.218 " />
<polyline points="531.654,543.297 531.654,537.648 " />
<polyline points="537.701,543.297 537.701,537.648 " />
<polyline points="540.327,543.854 540.327,537.17 " />
<polyline points="540.327,546.162 540.327,534.863 " />
<polyline points="541.52,546.162 541.52,534.863 " />
<polyline points="541.52,537.727 541.52,543.218 " />
<polyline points="531.654,537.727 531.654,543.218 " />
</g>
<g stroke-width="1" clip-path="url(#clipId0)" fill="none" stroke="rgb(0,0,0)" >
<polyline points="531.654,540.512 541.52,540.512 " />
</g>
<g stroke-width="1" clip-path="url(#clipId0)" fill="none" stroke="rgb(0,0,0)" >
<polyline points="540.327,568.521 537.701,567.964 531.654,567.964 531.654,562.314 537.701,562.314 537.701,567.964 " />
<polyline points="537.701,562.314 540.327,561.837 540.327,568.521 " />
<polyline points="541.52,570.828 540.327,570.828 540.327,559.529 541.52,559.529 541.52,570.828 " />
<polyline points="531.654,567.884 541.52,567.884 541.52,562.394 531.654,562.394 531.654,567.884 " />
<polyline points="531.654,567.964 531.654,562.314 " />
<polyline points="537.701,567.964 537.701,562.314 " />
<polyline points="540.327,568.521 540.327,561.837 " />
<polyline points="540.327,570.828 540.327,559.529 " />
<polyline points="541.52,570.828 541.52,559.529 " />
<polyline points="541.52,562.394 541.52,567.884 " />
<polyline points="531.654,562.394 531.654,567.884 " />
</g>
<g stroke-width="1" clip-path="url(#clipId0)" fill="none" stroke="rgb(0,0,0)" >
<polyline points="531.654,565.179 541.52,565.179 " />
</g>
<g stroke-width="1" clip-path="url(#clipId0)" fill="none" stroke="rgb(0,0,0)" >
<polyline points="698.191,500.171 700.738,500.648 716.731,500.648 716.731,506.298 700.738,506.298 700.738,500.648 " />
<polyline points="700.738,506.298 698.191,506.775 698.191,500.171 " />
<polyline points="696.998,497.863 698.191,497.863 698.191,509.082 696.998,509.082 696.998,497.863 " />
<polyline points="716.731,500.728 696.998,500.728 696.998,506.218 716.731,506.218 716.731,500.728 " />
<polyline points="716.731,500.648 716.731,506.298 " />
<polyline points="700.738,500.648 700.738,506.298 " />
<polyline points="698.191,500.171 698.191,506.775 " />
<polyline points="698.191,497.863 698.191,509.082 " />
<polyline points="696.998,497.863 696.998,509.082 " />
<polyline points="696.998,506.218 696.998,500.728 " />
<polyline points="716.731,506.218 716.731,500.728 " />
</g>
<g stroke-width="1" clip-path="url(#clipId0)" fill="none" stroke="rgb(0,0,0)" >
<polyline points="716.731,503.433 696.998,503.433 " />
</g>
<g stroke-width="1" clip-path="url(#clipId0)" fill="none" stroke="rgb(0,0,0)" >
<polyline points="681.323,502.319 681.8,499.693 681.8,483.7 687.45,483.7 687.45,499.693 681.8,499.693 " />
<polyline points="687.45,499.693 688.007,502.319 681.323,502.319 " />
<polyline points="679.015,503.433 679.015,502.319 690.314,502.319 690.314,503.433 679.015,503.433 " />
<polyline points="681.88,483.7 681.88,503.433 687.37,503.433 687.37,483.7 681.88,483.7 " />
<polyline points="681.8,483.7 687.45,483.7 " />
<polyline points="681.8,499.693 687.45,499.693 " />
<polyline points="681.323,502.319 688.007,502.319 " />
<polyline points="679.015,502.319 690.314,502.319 " />
<polyline points="679.015,503.433 690.314,503.433 " />
<polyline points="687.37,503.433 681.88,503.433 " />
<polyline points="687.37,483.7 681.88,483.7 " />
</g>
<g stroke-width="1" clip-path="url(#clipId0)" fill="none" stroke="rgb(0,0,0)" >
<polyline points="684.665,483.7 684.665,503.433 " />
</g>
<g stroke-width="1" clip-path="url(#clipId0)" fill="none" stroke="rgb(0,0,0)" >
<polyline points="460.201,130.493 461.076,130.175 461.951,130.493 462.269,131.368 461.951,132.244 461.076,132.642 460.201,132.244 459.803,131.368 460.201,130.493 459.803,131.368 460.201,132.244 461.076,132.642 461.951,132.244 462.269,131.368 461.951,130.493 461.076,130.175 460.201,130.493 " />
<polyline points="438.399,195.103 438.876,194.944 439.274,195.103 439.433,195.581 439.274,195.978 438.876,196.217 438.399,195.978 438.24,195.581 438.399,195.103 438.24,195.581 438.399,195.978 438.876,196.217 439.274,195.978 439.433,195.581 439.274,195.103 438.876,194.944 438.399,195.103 " />
<polyline points="398.932,195.103 399.33,194.944 399.808,195.103 399.967,195.581 399.808,195.978 399.33,196.217 398.932,195.978 398.773,195.581 398.932,195.103 398.773,195.581 398.932,195.978 399.33,196.217 399.808,195.978 399.967,195.581 399.808,195.103 399.33,194.944 398.932,195.103 " />
<polyline points="361.933,195.103 362.331,194.944 362.808,195.103 362.967,195.581 362.808,195.978 362.331,196.217 361.933,195.978 361.694,195.581 361.933,195.103 361.694,195.581 361.933,195.978 362.331,196.217 362.808,195.978 362.967,195.581 362.808,195.103 362.331,194.944 361.933,195.103 " />
<polyline points="482.878,195.103 483.276,194.944 483.753,195.103 483.912,195.581 483.753,195.978 483.276,196.217 482.878,195.978 482.639,195.581 482.878,195.103 482.639,195.581 482.878,195.978 483.276,196.217 483.753,195.978 483.912,195.581 483.753,195.103 483.276,194.944 482.878,195.103 " />
<polyline points="518.923,244.197 518.923,254.78 516.695,254.78 516.695,244.197 518.923,244.197 " />
<polyline points="518.923,254.78 516.695,254.78 " />
<polyline points="518.923,244.197 516.695,244.197 " />
<polyline points="513.989,244.197 513.989,254.78 511.761,254.78 511.761,244.197 513.989,244.197 " />
<polyline points="513.989,254.78 511.761,254.78 " />
<polyline points="513.989,244.197 511.761,244.197 " />
<polyline points="509.056,244.197 509.056,254.78 506.828,254.78 506.828,244.197 509.056,244.197 " />
<polyline points="509.056,254.78 506.828,254.78 " />
<polyline points="509.056,244.197 506.828,244.197 " />
<polyline points="523.856,244.197 523.856,254.78 521.628,254.78 521.628,244.197 523.856,244.197 " />
<polyline points="523.856,254.78 521.628,254.78 " />
<polyline points="523.856,244.197 521.628,244.197 " />
<polyline points="516.933,460.545 517.809,460.864 518.684,460.545 519.082,459.67 518.684,458.795 517.809,458.397 516.933,458.795 516.615,459.67 516.933,460.545 516.615,459.67 516.933,458.795 517.809,458.397 518.684,458.795 519.082,459.67 518.684,460.545 517.809,460.864 516.933,460.545 " />
<polyline points="527.675,368.961 527.675,372.622 527.675,368.961 538.496,368.961 " />
<polyline points="527.675,372.622 538.496,372.622 538.496,368.961 538.496,372.622 " />
<polyline points="715.14,354.559 716.731,355.196 718.322,354.559 719.039,352.889 718.322,351.297 716.731,350.661 715.14,351.297 714.503,352.889 715.14,354.559 714.503,352.889 715.14,351.297 716.731,350.661 718.322,351.297 719.039,352.889 718.322,354.559 716.731,355.196 715.14,354.559 " />
<polyline points="527.675,384.716 527.675,386.467 527.675,384.716 538.258,384.716 " />
<polyline points="527.675,386.467 538.258,386.467 538.258,384.716 538.258,386.467 " />
<polyline points="442.218,613.557 441.343,613.875 440.467,613.557 440.07,612.681 440.467,611.806 441.343,611.408 442.218,611.806 442.536,612.681 442.218,613.557 442.536,612.681 442.218,611.806 441.343,611.408 440.467,611.806 440.07,612.681 440.467,613.557 441.343,613.875 442.218,613.557 " />
<polyline points="533.643,246.505 524.492,246.505 514.944,246.505 505.396,246.505 495.847,246.505 486.299,246.505 476.751,246.505 467.203,246.505 457.654,246.505 448.106,246.505 438.558,246.505 429.01,246.505 419.461,246.505 409.913,246.505 400.365,246.505 390.816,246.505 381.268,246.505 371.72,246.505 362.172,246.505 352.623,246.505 343.075,246.505 333.527,246.505 324.297,246.505 324.297,258.281 324.297,267.829 324.297,277.378 324.297,286.926 324.297,296.474 324.297,306.022 324.297,315.571 324.297,325.119 324.297,334.667 324.297,344.215 324.297,353.764 324.297,363.312 324.297,372.86 324.297,382.409 324.297,391.957 324.297,401.505 324.297,411.053 324.297,420.602 324.297,430.15 324.297,439.698 324.297,449.247 324.297,458.795 324.297,468.343 324.297,477.891 324.297,487.44 324.297,496.988 324.297,506.536 324.297,516.085 324.297,525.633 324.297,535.181 324.297,544.729 324.297,554.278 324.297,563.826 324.297,573.374 324.297,582.923 324.297,592.471 324.297,602.019 324.297,611.567 324.297,621.116 324.297,632.971 333.527,632.971 343.075,632.971 352.623,632.971 362.172,632.971 371.72,632.971 381.268,632.971 390.816,632.971 400.365,632.971 409.913,632.971 419.461,632.971 429.01,632.971 438.558,632.971 448.106,632.971 457.654,632.971 467.203,632.971 476.751,632.971 486.299,632.971 495.847,632.971 505.396,632.971 514.944,632.971 524.492,632.971 533.643,632.971 533.643,621.116 533.643,611.567 533.643,602.019 533.643,592.471 533.643,582.923 533.643,573.374 533.643,563.826 533.643,554.278 533.643,544.729 533.643,535.181 533.643,525.633 533.643,516.085 533.643,506.536 533.643,496.988 533.643,487.44 533.643,477.891 533.643,468.343 533.643,458.795 533.643,449.247 533.643,439.698 533.643,430.15 533.643,420.602 533.643,411.053 533.643,401.505 533.643,391.957 533.643,382.409 533.643,372.86 533.643,363.312 533.643,353.764 533.643,344.215 533.643,334.667 533.643,325.119 533.643,315.571 533.643,306.022 533.643,296.474 533.643,286.926 533.643,277.378 533.643,267.829 533.643,258.281 533.643,246.505 533.643,258.281 533.643,267.829 533.643,277.378 533.643,286.926 533.643,296.474 533.643,306.022 533.643,315.571 533.643,325.119 533.643,334.667 533.643,344.215 533.643,353.764 533.643,363.312 533.643,372.86 533.643,382.409 533.643,391.957 533.643,401.505 533.643,411.053 533.643,420.602 533.643,430.15 533.643,439.698 533.643,449.247 533.643,458.795 533.643,468.343 533.643,477.891 533.643,487.44 533.643,496.988 533.643,506.536 533.643,516.085 533.643,525.633 533.643,535.181 533.643,544.729 533.643,554.278 533.643,563.826 533.643,573.374 533.643,582.923 533.643,592.471 533.643,602.019 533.643,611.567 533.643,621.116 533.643,632.971 524.492,632.971 514.944,632.971 505.396,632.971 495.847,632.971 486.299,632.971 476.751,632.971 467.203,632.971 457.654,632.971 448.106,632.971 438.558,632.971 429.01,632.971 419.461,632.971 409.913,632.971 400.365,632.971 390.816,632.971 381.268,632.971 371.72,632.971 362.172,632.971 352.623,632.971 343.075,632.971 333.527,632.971 324.297,632.971 324.297,621.116 324.297,611.567 324.297,602.019 324.297,592.471 324.297,582.923 324.297,573.374 324.297,563.826 324.297,554.278 324.297,544.729 324.297,535.181 324.297,525.633 324.297,516.085 324.297,506.536 324.297,496.988 324.297,487.44 324.297,477.891 324.297,468.343 324.297,458.795 324.297,449.247 324.297,439.698 324.297,430.15 324.297,420.602 324.297,411.053 324.297,401.505 324.297,391.957 324.297,382.409 324.297,372.86 324.297,363.312 324.297,353.764 324.297,344.215 324.297,334.667 324.297,325.119 324.297,315.571 324.297,306.022 324.297,296.474 324.297,286.926 324.297,277.378 324.297,267.829 324.297,258.281 324.297,246.505 333.527,246.505 343.075,246.505 352.623,246.505 362.172,246.505 371.72,246.505 381.268,246.505 390.816,246.505 400.365,246.505 409.913,246.505 419.461,246.505 429.01,246.505 438.558,246.505 448.106,246.505 457.654,246.505 467.203,246.505 476.751,246.505 486.299,246.505 495.847,246.505 505.396,246.505 514.944,246.505 524.492,246.505 533.643,246.505 " />
<polyline points="726.995,244.356 712.434,244.356 702.886,244.356 693.338,244.356 683.789,244.356 674.241,244.356 664.693,244.356 655.145,244.356 645.596,244.356 636.048,244.356 626.5,244.356 616.952,244.356 607.403,244.356 597.855,244.356 588.307,244.356 578.758,244.356 564.277,244.356 564.277,257.008 564.277,266.556 564.277,276.104 564.277,285.653 564.277,295.201 564.277,304.749 564.277,314.298 564.277,323.846 564.277,333.394 564.277,342.942 564.277,352.491 564.277,362.039 564.277,371.587 564.277,381.136 564.277,390.684 564.277,400.232 564.277,409.78 564.277,419.329 564.277,428.877 564.277,438.425 564.277,447.973 564.277,457.522 564.277,467.07 564.277,476.618 564.277,489.19 578.758,489.19 588.307,489.19 597.855,489.19 607.403,489.19 616.952,489.19 626.5,489.19 636.048,489.19 645.596,489.19 655.145,489.19 664.693,489.19 674.241,489.19 683.789,489.19 693.338,489.19 702.886,489.19 712.434,489.19 726.995,489.19 726.995,476.618 726.995,467.07 726.995,457.522 726.995,447.973 726.995,438.425 726.995,428.877 726.995,419.329 726.995,409.78 726.995,400.232 726.995,390.684 726.995,381.136 726.995,371.587 726.995,362.039 726.995,352.491 726.995,342.942 726.995,333.394 726.995,323.846 726.995,314.298 726.995,304.749 726.995,295.201 726.995,285.653 726.995,276.104 726.995,266.556 726.995,257.008 726.995,244.356 726.995,257.008 726.995,266.556 726.995,276.104 726.995,285.653 726.995,295.201 726.995,304.749 726.995,314.298 726.995,323.846 726.995,333.394 726.995,342.942 726.995,352.491 726.995,362.039 726.995,371.587 726.995,381.136 726.995,390.684 726.995,400.232 726.995,409.78 726.995,419.329 726.995,428.877 726.995,438.425 726.995,447.973 726.995,457.522 726.995,467.07 726.995,476.618 726.995,489.19 712.434,489.19 702.886,489.19 693.338,489.19 683.789,489.19 674.241,489.19 664.693,489.19 655.145,489.19 645.596,489.19 636.048,489.19 626.5,489.19 616.952,489.19 607.403,489.19 597.855,489.19 588.307,489.19 578.758,489.19 564.277,489.19 564.277,476.618 564.277,467.07 564.277,457.522 564.277,447.973 564.277,438.425 564.277,428.877 564.277,419.329 564.277,409.78 564.277,400.232 564.277,390.684 564.277,381.136 564.277,371.587 564.277,362.039 564.277,352.491 564.277,342.942 564.277,333.394 564.277,323.846 564.277,314.298 564.277,304.749 564.277,295.201 564.277,285.653 564.277,276.104 564.277,266.556 564.277,257.008 564.277,244.356 578.758,244.356 588.307,244.356 597.855,244.356 607.403,244.356 616.952,244.356 626.5,244.356 636.048,244.356 645.596,244.356 655.145,244.356 664.693,244.356 674.241,244.356 683.789,244.356 693.338,244.356 702.886,244.356 712.434,244.356 726.995,244.356 " />
<polyline points="724.131,328.222 709.331,328.222 709.331,343.34 709.331,352.889 709.331,362.437 709.331,377.634 724.131,377.634 724.131,362.437 724.131,352.889 724.131,343.34 724.131,328.222 724.131,343.34 724.131,352.889 724.131,362.437 724.131,377.634 709.331,377.634 709.331,362.437 709.331,352.889 709.331,343.34 709.331,328.222 724.131,328.222 " />
<polyline points="724.131,463.967 709.331,463.967 709.331,479.085 709.331,488.633 709.331,498.182 709.331,513.379 724.131,513.379 724.131,498.182 724.131,488.633 724.131,479.085 724.131,463.967 724.131,479.085 724.131,488.633 724.131,498.182 724.131,513.379 709.331,513.379 709.331,498.182 709.331,488.633 709.331,479.085 709.331,463.967 724.131,463.967 " />
<polyline points="556.161,122.695 559.821,131.368 556.161,140.121 547.488,143.702 538.735,140.121 535.155,131.368 538.735,122.695 547.488,119.035 556.161,122.695 547.488,119.035 538.735,122.695 535.155,131.368 538.735,140.121 547.488,143.702 556.161,140.121 559.821,131.368 556.161,122.695 " />
<polyline points="593.479,101.053 593.479,107.498 593.479,117.046 593.479,126.594 593.479,136.143 593.479,145.691 593.479,155.239 593.479,161.684 593.479,152.852 " />
<polyline points="593.479,161.684 595.468,155.637 598.412,146.566 601.436,137.495 603.345,131.368 601.436,125.321 598.412,116.25 595.468,107.179 593.479,101.053 593.479,117.444 593.479,126.992 593.479,136.54 593.479,152.852 " />
<polyline points="328.593,161.684 328.593,155.239 328.593,145.691 328.593,136.143 328.593,126.594 328.593,117.046 328.593,107.498 328.593,101.053 328.593,109.964 " />
<polyline points="328.593,101.053 326.684,107.179 323.66,116.25 320.716,125.321 318.727,131.368 320.716,137.495 323.66,146.566 326.684,155.637 328.593,161.684 328.593,145.373 328.593,135.824 328.593,126.276 328.593,109.964 " />
<polyline points="405.537,131.368 393.203,131.368 405.537,131.368 405.537,136.461 405.537,146.009 405.537,155.557 405.537,165.106 405.537,174.654 405.537,184.202 405.537,193.751 405.537,203.299 405.537,212.847 405.537,222.395 405.537,231.944 405.537,241.492 405.537,246.505 " />
<polyline points="393.203,131.368 393.203,136.461 393.203,146.009 393.203,155.557 393.203,165.106 393.203,174.654 393.203,184.202 393.203,193.751 393.203,203.299 393.203,212.847 393.203,222.395 393.203,231.944 393.203,241.492 393.203,246.505 405.537,246.505 393.203,246.505 " />
<polyline points="445.003,131.368 432.67,131.368 445.003,131.368 445.003,136.461 445.003,146.009 445.003,155.557 445.003,165.106 445.003,174.654 445.003,184.202 445.003,193.751 445.003,203.299 445.003,212.847 445.003,222.395 445.003,231.944 445.003,241.492 445.003,246.505 " />
<polyline points="432.67,131.368 432.67,136.461 432.67,146.009 432.67,155.557 432.67,165.106 432.67,174.654 432.67,184.202 432.67,193.751 432.67,203.299 432.67,212.847 432.67,222.395 432.67,231.944 432.67,241.492 432.67,246.505 445.003,246.505 432.67,246.505 " />
<polyline points="489.482,131.368 477.149,131.368 489.482,131.368 489.482,136.461 489.482,146.009 489.482,155.557 489.482,165.106 489.482,174.654 489.482,184.202 489.482,193.751 489.482,203.299 489.482,212.847 489.482,222.395 489.482,231.944 489.482,241.492 489.482,246.505 " />
<polyline points="477.149,131.368 477.149,136.461 477.149,146.009 477.149,155.557 477.149,165.106 477.149,174.654 477.149,184.202 477.149,193.751 477.149,203.299 477.149,212.847 477.149,222.395 477.149,231.944 477.149,241.492 477.149,246.505 489.482,246.505 477.149,246.505 " />
<polyline points="368.537,246.505 368.537,241.492 368.537,231.944 368.537,222.395 368.537,212.847 368.537,203.299 368.537,193.751 368.537,184.202 368.537,174.654 368.537,165.106 368.537,155.557 368.537,146.009 368.537,136.461 368.537,131.368 356.204,131.368 356.204,136.461 356.204,146.009 356.204,155.557 356.204,165.106 356.204,174.654 356.204,184.202 356.204,193.751 356.204,203.299 356.204,212.847 356.204,222.395 356.204,231.944 356.204,241.492 356.204,246.505 368.537,246.505 " />
<polyline points="356.204,131.368 368.537,131.368 " />
<polyline points="356.204,246.505 368.537,246.505 " />
<polyline points="593.479,101.053 593.479,107.498 593.479,117.046 593.479,126.594 593.479,136.143 593.479,145.691 593.479,155.239 593.479,161.684 " />
<polyline points="328.593,161.684 328.593,155.239 328.593,145.691 328.593,136.143 328.593,126.594 328.593,117.046 328.593,107.498 328.593,101.053 328.593,107.498 328.593,117.046 328.593,126.594 328.593,136.143 328.593,145.691 328.593,155.239 328.593,161.684 336.948,161.684 346.496,161.684 356.045,161.684 365.593,161.684 375.141,161.684 384.69,161.684 394.238,161.684 403.786,161.684 413.334,161.684 422.883,161.684 432.431,161.684 441.979,161.684 451.528,161.684 461.076,161.684 470.624,161.684 480.172,161.684 489.721,161.684 499.269,161.684 508.817,161.684 518.366,161.684 527.914,161.684 537.462,161.684 547.01,161.684 556.559,161.684 566.107,161.684 575.655,161.684 585.203,161.684 593.479,161.684 593.479,155.239 593.479,145.691 593.479,136.143 593.479,126.594 593.479,117.046 593.479,107.498 593.479,101.053 585.203,101.053 575.655,101.053 566.107,101.053 556.559,101.053 547.01,101.053 537.462,101.053 527.914,101.053 518.366,101.053 508.817,101.053 499.269,101.053 489.721,101.053 480.172,101.053 470.624,101.053 461.076,101.053 451.528,101.053 441.979,101.053 432.431,101.053 422.883,101.053 413.334,101.053 403.786,101.053 394.238,101.053 384.69,101.053 375.141,101.053 365.593,101.053 356.045,101.053 346.496,101.053 336.948,101.053 328.593,101.053 " />
<polyline points="378.642,636.95 371.163,636.95 378.642,636.95 378.642,637.905 " />
<polyline points="371.163,636.95 371.163,637.905 378.642,637.905 371.163,637.905 " />
<polyline points="376.335,628.038 373.391,628.038 376.335,628.038 376.335,636.95 " />
<polyline points="373.391,628.038 373.391,636.95 376.335,636.95 373.391,636.95 " />
<polyline points="378.642,636.95 371.163,636.95 378.642,636.95 378.642,637.905 " />
<polyline points="371.163,636.95 371.163,637.905 378.642,637.905 371.163,637.905 " />
</g>
<g stroke-width="1" clip-path="url(#clipId0)" fill="none" stroke="rgb(0,0,0)" >
<polyline points="374.903,628.038 374.903,637.905 " />
</g>
<g stroke-width="1" clip-path="url(#clipId0)" fill="none" stroke="rgb(0,0,0)" >
<polyline points="352.623,636.632 353.18,633.528 353.18,628.038 361.535,628.038 361.535,633.528 353.18,633.528 " />
<polyline points="361.535,633.528 362.092,636.632 352.623,636.632 " />
<polyline points="350.475,637.905 350.475,636.632 364.24,636.632 364.24,637.905 350.475,637.905 " />
<polyline points="353.499,628.038 353.499,637.905 361.217,637.905 361.217,628.038 353.499,628.038 " />
<polyline points="353.18,628.038 361.535,628.038 " />
<polyline points="353.18,633.528 361.535,633.528 " />
<polyline points="352.623,636.632 362.092,636.632 " />
<polyline points="350.475,636.632 364.24,636.632 " />
<polyline points="350.475,637.905 364.24,637.905 " />
<polyline points="361.217,637.905 353.499,637.905 " />
<polyline points="361.217,628.038 353.499,628.038 " />
</g>
<g stroke-width="1" clip-path="url(#clipId0)" fill="none" stroke="rgb(0,0,0)" >
<polyline points="357.318,628.038 357.318,637.905 " />
</g>
<g stroke-width="1" clip-path="url(#clipId0)" fill="none" stroke="rgb(0,0,0)" >
<polyline points="414.051,637.984 414.687,634.801 414.687,624.378 422.962,624.378 422.962,634.801 414.687,634.801 " />
<polyline points="422.962,634.801 423.519,637.984 414.051,637.984 " />
<polyline points="411.902,639.178 411.902,637.984 425.747,637.984 425.747,639.178 411.902,639.178 " />
<polyline points="414.926,624.378 414.926,639.178 422.724,639.178 422.724,624.378 414.926,624.378 " />
<polyline points="414.687,624.378 422.962,624.378 " />
<polyline points="414.687,634.801 422.962,634.801 " />
<polyline points="414.051,637.984 423.519,637.984 " />
<polyline points="411.902,637.984 425.747,637.984 " />
<polyline points="411.902,639.178 425.747,639.178 " />
<polyline points="422.724,639.178 414.926,639.178 " />
<polyline points="422.724,624.378 414.926,624.378 " />
</g>
<g stroke-width="1" clip-path="url(#clipId0)" fill="none" stroke="rgb(0,0,0)" >
<polyline points="418.825,624.378 418.825,639.178 " />
</g>
<g stroke-width="1" clip-path="url(#clipId0)" fill="none" stroke="rgb(0,0,0)" >
<polyline points="327.798,653.023 329.23,656.524 327.798,659.945 324.297,661.457 320.796,659.945 319.363,656.524 320.796,653.023 324.297,651.511 327.798,653.023 324.297,651.511 320.796,653.023 319.363,656.524 320.796,659.945 324.297,661.457 327.798,659.945 329.23,656.524 327.798,653.023 " />
</g>
<g stroke-width="1" clip-path="url(#clipId0)" fill="none" stroke="rgb(0,0,0)" >
<polyline points="509.374,227.408 499.508,227.408 499.508,202.742 " />
<polyline points="361.296,202.742 361.296,227.408 351.43,227.408 " />
<polyline points="730.735,492.93 712.434,492.93 702.886,492.93 693.338,492.93 683.789,492.93 674.241,492.93 664.693,492.93 655.145,492.93 645.596,492.93 636.048,492.93 626.5,492.93 616.952,492.93 607.403,492.93 597.855,492.93 588.307,492.93 578.758,492.93 560.537,492.93 " />
<polyline points="537.383,240.617 537.383,256.053 537.383,265.601 537.383,275.15 537.383,284.698 537.383,294.246 537.383,303.794 537.383,313.343 537.383,322.891 537.383,332.439 537.383,341.988 537.383,351.536 537.383,361.084 537.383,370.632 537.383,380.181 537.383,389.729 537.383,399.277 537.383,408.826 537.383,418.374 537.383,427.922 537.383,437.47 537.383,447.019 537.383,456.567 537.383,466.115 537.383,475.663 537.383,485.212 537.383,494.76 537.383,504.308 537.383,513.857 537.383,523.405 537.383,532.953 537.383,542.501 537.383,552.05 537.383,561.598 537.383,571.146 537.383,580.695 537.383,590.243 537.383,599.791 537.383,609.339 537.383,618.888 537.383,628.436 537.383,637.984 537.383,647.533 537.383,662.889 " />
</g>
<g stroke-width="1" clip-path="url(#clipId0)" fill="none" stroke="rgb(127,111,63)" >
<polyline points="469.59,559.052 473.727,559.052 481.923,550.856 481.923,538.523 477.865,534.385 469.59,534.385 465.532,538.523 465.532,542.581 469.59,546.719 481.923,546.719 " />
</g>
<g stroke-width="1" clip-path="url(#clipId0)" fill="none" stroke="rgb(0,0,0)" >
<circle cx="473.727" cy="546.719" r="21.4041" />
</g>
<g stroke-width="1" clip-path="url(#clipId0)" fill="none" stroke="rgb(0,0,0)" >
<polyline points="730.735,492.93 730.735,476.618 730.735,467.07 730.735,457.522 730.735,447.973 730.735,438.425 730.735,428.877 730.735,419.329 730.735,409.78 730.735,400.232 730.735,390.684 730.735,381.136 730.735,371.587 730.735,362.039 730.735,352.491 730.735,342.942 730.735,333.394 730.735,323.846 730.735,314.298 730.735,304.749 730.735,295.201 730.735,285.653 730.735,276.104 730.735,266.556 730.735,257.008 730.735,240.617 712.434,240.617 702.886,240.617 693.338,240.617 683.789,240.617 674.241,240.617 664.693,240.617 655.145,240.617 645.596,240.617 636.048,240.617 626.5,240.617 616.952,240.617 607.403,240.617 597.855,240.617 588.307,240.617 578.758,240.617 560.537,240.617 560.537,257.008 560.537,266.556 560.537,276.104 560.537,285.653 560.537,295.201 560.537,304.749 560.537,314.298 560.537,323.846 560.537,333.394 560.537,342.942 560.537,352.491 560.537,362.039 560.537,371.587 560.537,381.136 560.537,390.684 560.537,400.232 560.537,409.78 560.537,419.329 560.537,428.877 560.537,438.425 560.537,447.973 560.537,457.522 560.537,467.07 560.537,476.618 560.537,492.93 560.537,476.618 560.537,467.07 560.537,457.522 560.537,447.973 560.537,438.425 560.537,428.877 560.537,419.329 560.537,409.78 560.537,400.232 560.537,390.684 560.537,381.136 560.537,371.587 560.537,362.039 560.537,352.491 560.537,342.942 560.537,333.394 560.537,323.846 560.537,314.298 560.537,304.749 560.537,295.201 560.537,285.653 560.537,276.104 560.537,266.556 560.537,257.008 560.537,240.617 578.758,240.617 588.307,240.617 597.855,240.617 607.403,240.617 616.952,240.617 626.5,240.617 636.048,240.617 645.596,240.617 655.145,240.617 664.693,240.617 674.241,240.617 683.789,240.617 693.338,240.617 702.886,240.617 712.434,240.617 730.735,240.617 730.735,257.008 730.735,266.556 730.735,276.104 730.735,285.653 730.735,295.201 730.735,304.749 730.735,314.298 730.735,323.846 730.735,333.394 730.735,342.942 730.735,352.491 730.735,362.039 730.735,371.587 730.735,381.136 730.735,390.684 730.735,400.232 730.735,409.78 730.735,419.329 730.735,428.877 730.735,438.425 730.735,447.973 730.735,457.522 730.735,467.07 730.735,476.618 730.735,492.93 712.434,492.93 702.886,492.93 693.338,492.93 683.789,492.93 674.241,492.93 664.693,492.93 655.145,492.93 645.596,492.93 636.048,492.93 626.5,492.93 616.952,492.93 607.403,492.93 597.855,492.93 588.307,492.93 578.758,492.93 560.537,492.93 " />
<polyline points="537.383,662.889 524.492,662.889 514.944,662.889 505.396,662.889 495.847,662.889 486.299,662.889 476.751,662.889 467.203,662.889 457.654,662.889 448.106,662.889 438.558,662.889 429.01,662.889 419.461,662.889 409.913,662.889 400.365,662.889 390.816,662.889 381.268,662.889 371.72,662.889 362.172,662.889 352.623,662.889 343.075,662.889 333.527,662.889 320.637,662.889 320.637,647.533 320.637,637.984 320.637,628.436 320.637,618.888 320.637,609.339 320.637,599.791 320.637,590.243 320.637,580.695 320.637,571.146 320.637,561.598 320.637,552.05 320.637,542.501 320.637,532.953 320.637,523.405 320.637,513.857 320.637,504.308 320.637,494.76 320.637,485.212 320.637,475.663 320.637,466.115 320.637,456.567 320.637,447.019 320.637,437.47 320.637,427.922 320.637,418.374 320.637,408.826 320.637,399.277 320.637,389.729 320.637,380.181 320.637,370.632 320.637,361.084 320.637,351.536 320.637,341.988 320.637,332.439 320.637,322.891 320.637,313.343 320.637,303.794 320.637,294.246 320.637,284.698 320.637,275.15 320.637,265.601 320.637,256.053 320.637,240.617 333.527,240.617 343.075,240.617 352.623,240.617 362.172,240.617 371.72,240.617 381.268,240.617 390.816,240.617 400.365,240.617 409.913,240.617 419.461,240.617 429.01,240.617 438.558,240.617 448.106,240.617 457.654,240.617 467.203,240.617 476.751,240.617 486.299,240.617 495.847,240.617 505.396,240.617 514.944,240.617 524.492,240.617 537.383,240.617 " />
<polyline points="320.637,662.889 320.637,647.533 320.637,637.984 320.637,628.436 320.637,618.888 320.637,609.339 320.637,599.791 320.637,590.243 320.637,580.695 320.637,571.146 320.637,561.598 320.637,552.05 320.637,542.501 320.637,532.953 320.637,523.405 320.637,513.857 320.637,504.308 320.637,494.76 320.637,485.212 320.637,475.663 320.637,466.115 320.637,456.567 320.637,447.019 320.637,437.47 320.637,427.922 320.637,418.374 320.637,408.826 320.637,399.277 320.637,389.729 320.637,380.181 320.637,370.632 320.637,361.084 320.637,351.536 320.637,341.988 320.637,332.439 320.637,322.891 320.637,313.343 320.637,303.794 320.637,294.246 320.637,284.698 320.637,275.15 320.637,265.601 320.637,256.053 320.637,240.617 333.527,240.617 343.075,240.617 352.623,240.617 362.172,240.617 371.72,240.617 381.268,240.617 390.816,240.617 400.365,240.617 409.913,240.617 419.461,240.617 429.01,240.617 438.558,240.617 448.106,240.617 457.654,240.617 467.203,240.617 476.751,240.617 486.299,240.617 495.847,240.617 505.396,240.617 514.944,240.617 524.492,240.617 537.383,240.617 537.383,256.053 537.383,265.601 537.383,275.15 537.383,284.698 537.383,294.246 537.383,303.794 537.383,313.343 537.383,322.891 537.383,332.439 537.383,341.988 537.383,351.536 537.383,361.084 537.383,370.632 537.383,380.181 537.383,389.729 537.383,399.277 537.383,408.826 537.383,418.374 537.383,427.922 537.383,437.47 537.383,447.019 537.383,456.567 537.383,466.115 537.383,475.663 537.383,485.212 537.383,494.76 537.383,504.308 537.383,513.857 537.383,523.405 537.383,532.953 537.383,542.501 537.383,552.05 537.383,561.598 537.383,571.146 537.383,580.695 537.383,590.243 537.383,599.791 537.383,609.339 537.383,618.888 537.383,628.436 537.383,637.984 537.383,647.533 537.383,662.889 524.492,662.889 514.944,662.889 505.396,662.889 495.847,662.889 486.299,662.889 476.751,662.889 467.203,662.889 457.654,662.889 448.106,662.889 438.558,662.889 429.01,662.889 419.461,662.889 409.913,662.889 400.365,662.889 390.816,662.889 381.268,662.889 371.72,662.889 362.172,662.889 352.623,662.889 343.075,662.889 333.527,662.889 320.637,662.889 " />
</g>
<g stroke-width="1" clip-path="url(#clipId0)" fill="none" stroke="rgb(0,0,0)" >
<polyline points="429.01,689.465 429.01,552.527 " />
<polyline points="429.01,500.012 429.01,490.463 " />
<polyline points="429.01,437.948 429.01,342.385 " />
<polyline points="429.01,289.87 429.01,280.322 " />
<polyline points="429.01,227.806 429.01,90.8678 " />
</g>
<g stroke-width="0.1" clip-path="url(#clipId0)" fill="none" stroke="rgb(0,0,0)" >
<polyline points="126.886,692.489 922.576,692.489 922.576,87.7646 126.886,87.7646 126.886,692.489 " />
</g>
</svg>
